<?xml version="1.0" encoding="utf-8"?>
<!-- Generator: Adobe Illustrator 27.5.0, SVG Export Plug-In . SVG Version: 6.00 Build 0)  -->
<svg version="1.1" xmlns="http://www.w3.org/2000/svg" xmlns:xlink="http://www.w3.org/1999/xlink" x="0px" y="0px"
	 viewBox="0 0 500 500" style="enable-background:new 0 0 500 500;" xml:space="preserve">
<g id="Floor">
	<path id="Floor_11_" style="fill:#FAFAFA;" d="M91.241,430.771c88.926,60.872,233.104,60.874,322.029,0.002
		c88.926-60.874,88.926-159.566,0-220.438c-88.926-60.873-233.104-60.873-322.03-0.002C2.314,271.205,2.314,369.899,91.241,430.771z
		"/>
</g>
<g id="Shadow">
	<ellipse id="Shadow_12_" style="fill:#EBEBEB;" cx="339.589" cy="415.757" rx="45.2" ry="28.081"/>
</g>
<g id="Plants">
	<g id="Plants_10_">
		<g id="XMLID_622_">
			<g id="XMLID_916_">
				<path id="XMLID_921_" style="fill:#27DEBF;" d="M362.706,391.086c-0.123-4.531,1.136-12.132,5.602-19.717
					c4.779-8.118,11.086-13.556,16.386-11.903c4.937,1.54,3.851,8.24-3.571,15.536c-5.208,5.12-10.481,11.618-12.889,19.039
					l-4.177,9.563L362.706,391.086z"/>
			</g>
			<g id="XMLID_914_">
				<path id="XMLID_915_" style="fill:#27DEBF;" d="M362.706,391.086c-0.123-4.531,1.136-12.132,5.602-19.717
					c4.779-8.118,11.086-13.556,16.386-11.903c4.937,1.54,3.851,8.24-3.571,15.536c-5.208,5.12-10.481,11.618-12.889,19.039
					l-4.177,9.563L362.706,391.086z"/>
			</g>
			<g id="XMLID_912_" style="opacity:0.1;">
				<path id="XMLID_913_" d="M362.706,391.086c-0.123-4.531,1.136-12.132,5.602-19.717c4.779-8.118,11.086-13.556,16.386-11.903
					c4.937,1.54,3.851,8.24-3.571,15.536c-5.208,5.12-10.481,11.618-12.889,19.039l-4.177,9.563L362.706,391.086z"/>
			</g>
			<g id="XMLID_623_">
				<path id="XMLID_629_" style="fill:#FFFFFF;" d="M363.531,394.461c0.13-0.014,0.245-0.108,0.277-0.243
					c3.179-12.942,11.238-26.562,18.746-31.678c0.147-0.1,0.185-0.3,0.085-0.446c-0.101-0.147-0.3-0.184-0.446-0.085
					c-7.624,5.197-15.795,18.978-19.008,32.056c-0.043,0.173,0.063,0.347,0.235,0.389
					C363.457,394.463,363.495,394.465,363.531,394.461z"/>
			</g>
		</g>
		<g id="XMLID_618_">
			<path id="XMLID_621_" style="fill:#27DEBF;" d="M362.66,405.761c0,0,3.17,3.172,8.818,4.415c5.647,1.243,8.326-1.334,8.326-1.334
				s-1.926-5.481-5.074-7.174c0,0,5.423,1.446,9.653,4.649c0,0,3.478,0.26,5.181-4.97c0,0-1.872-3.321-8.69-5.461
				c0,0,4.273-0.809,10.249,1.101c0.444,0.208,2.793-6.546,3.569-9.681s-0.5-3.177-2.932-3.984
				c-2.432-0.807-10.821-1.724-12.449-0.457c-1.628,1.267-2.691,5.867-2.691,5.867s-1.323-2.718-0.828-5.044
				c0,0-2.431-0.99-5.264-0.188c-2.833,0.802-2.738,2.165-2.858,4.185c-0.129,2.16-0.001,3.607,0.473,6.064
				c0,0-1.818-1.773-1.521-7.891c0,0-3.943,2.987-5.614,5.657C359.336,394.185,359.288,401.427,362.66,405.761z"/>
			<g id="XMLID_619_">
				<path id="XMLID_620_" style="fill:#FFFFFF;" d="M362.642,406.082c0.119,0.007,0.237-0.053,0.299-0.164
					c5.171-9.284,22.938-19.371,29.136-20.197c0.176-0.023,0.299-0.185,0.276-0.361c-0.023-0.176-0.187-0.298-0.361-0.276
					c-6.3,0.84-24.359,11.089-29.612,20.522c-0.086,0.155-0.031,0.351,0.124,0.437C362.548,406.066,362.595,406.079,362.642,406.082
					z"/>
			</g>
		</g>
	</g>
</g>
<g id="Device_1_">
	<g id="Device">
		<path id="XMLID_519_" style="fill:#37474F;" d="M160.63,373.424l-2.856-1.649c-2.32-1.34-4.2-4.597-4.2-7.275V108.425
			c0-2.679,1.88-5.936,4.2-7.275l115.433-66.646c2.32-1.339,6.081-1.34,8.4,0l2.858,1.65c2.32,1.339,4.2,4.596,4.2,7.275v256.074
			c0,2.679-1.88,5.936-4.2,7.275l-115.435,66.646C166.711,374.764,162.95,374.763,160.63,373.424z"/>
		<path id="XMLID_518_" style="fill:#263238;" d="M170.46,113.325l-15.655-9.039c-0.76,1.316-1.23,2.8-1.23,4.14V364.5
			c0,2.679,1.88,5.936,4.2,7.275l2.856,1.649c2.32,1.339,6.081,1.34,8.4,0l1.429-0.825V113.325z"/>
		<path id="XMLID_517_" style="fill:#455A64;" d="M164.83,114.925v256.074c0,2.679,1.88,3.764,4.2,2.425l115.435-66.646
			c2.32-1.339,4.2-4.596,4.2-7.275V43.43c0-2.679-1.88-3.764-4.2-2.425L169.031,107.65
			C166.711,108.989,164.83,112.246,164.83,114.925z"/>
		<path id="XMLID_515_" style="fill:#FFFFFF;" d="M174.059,133.02l104.964-60.596c1.988-1.148,3.6-0.217,3.6,2.078v199.674
			c0,2.296-1.612,5.088-3.6,6.236l-104.963,60.596c-1.988,1.148-3.6,0.217-3.6-2.079l-0.001-199.673
			C170.459,136.96,172.071,134.168,174.059,133.02z"/>
		<path id="XMLID_489_" style="fill:#263238;" d="M226.748,81.061c1.554-0.897,2.814-0.17,2.814,1.625
			c0,1.795-1.26,3.977-2.814,4.875c-1.554,0.897-2.814,0.17-2.814-1.625C223.933,84.141,225.193,81.958,226.748,81.061z"/>
		<g id="XMLID_419_">
			<path id="XMLID_488_" style="fill:#263238;" d="M218.621,95.119c5.718-3.161,15.92-9.233,21.558-12.549
				c0.957-0.563,1.732-0.175,1.732,0.866c0,1.042-0.779,2.336-1.741,2.891L218.575,98.8c-0.962,0.555-1.741,0.16-1.741-0.881
				C216.834,96.878,217.649,95.657,218.621,95.119z"/>
			<path id="XMLID_422_" style="fill:#263238;" d="M213.165,98.272c0.873-0.504,1.58-0.096,1.58,0.912
				c0,1.008-0.707,2.233-1.58,2.737c-0.873,0.504-1.58,0.095-1.58-0.913C211.585,100.001,212.292,98.776,213.165,98.272z"/>
		</g>
		<path id="XMLID_406_" style="fill:#263238;" d="M227.746,317.224c3.66-2.113,6.628-0.4,6.628,3.827
			c0,4.227-2.967,9.366-6.628,11.479c-3.66,2.113-6.628,0.4-6.628-3.826C221.119,324.477,224.086,319.338,227.746,317.224z"/>
	</g>
</g>
<g id="Profile_window_3">
	<g id="XMLID_339_">
		<g id="XMLID_1857_">
			<path id="XMLID_1866_" style="fill:#27DEBF;" d="M364.773,17.133l-3.709-2.143v0.003c-0.569-0.341-1.359-0.302-2.236,0.204
				l-91.365,52.745c-1.731,0.999-3.134,3.429-3.134,5.428l0.001,173.804c0,0.973,0.336,1.657,0.877,1.995l-0.002,0.008l0.039,0.023
				c0.003,0.002,0.005,0.003,0.008,0.005l3.697,2.136l89.879-55.102c1.731-0.999,3.134-3.43,3.134-5.428L364.773,17.133z"/>
			<path id="XMLID_1860_" style="fill:#27DEBF;" d="M268.89,251.312l-3.645-2.11h-0.009l-0.037-0.027v-0.009
				c-0.539-0.338-0.877-1.014-0.877-1.991V73.366c0-1.05,0.402-2.229,1.023-3.252l3.709,2.137c-0.63,1.023-1.023,2.201-1.023,3.261
				V249.32C268.031,250.279,268.36,250.974,268.89,251.312z"/>
			<path id="XMLID_3_" style="opacity:0.3;fill:#FFFFFF;" d="M268.89,251.312l-3.645-2.11h-0.009l-0.037-0.027v-0.009
				c-0.539-0.338-0.877-1.014-0.877-1.991V73.366c0-1.05,0.402-2.229,1.023-3.252l3.709,2.137c-0.63,1.023-1.023,2.201-1.023,3.261
				V249.32C268.031,250.279,268.36,250.974,268.89,251.312z"/>
			<path id="XMLID_1859_" style="fill:#27DEBF;" d="M271.174,70.086l91.365-52.745c1.731-0.999,3.134-0.189,3.134,1.809v173.804
				c0,1.999-1.403,4.429-3.134,5.428l-91.364,52.745c-1.731,0.999-3.134,0.189-3.134-1.809L268.04,75.514
				C268.04,73.515,269.443,71.085,271.174,70.086z"/>
			<path id="XMLID_4_" style="opacity:0.6;fill:#FFFFFF;" d="M271.174,70.086l91.365-52.745c1.731-0.999,3.134-0.189,3.134,1.809
				v173.804c0,1.999-1.403,4.429-3.134,5.428l-91.364,52.745c-1.731,0.999-3.134,0.189-3.134-1.809L268.04,75.514
				C268.04,73.515,269.443,71.085,271.174,70.086z"/>
			<path id="XMLID_1858_" style="fill:#27DEBF;" d="M361.051,14.986l3.581,2.074c-0.557-0.256-1.288-0.192-2.101,0.283
				l-91.366,52.744c-0.813,0.466-1.553,1.252-2.11,2.165l-3.709-2.137c0.548-0.914,1.297-1.699,2.11-2.174l91.366-52.744
				c0.877-0.502,1.663-0.548,2.229-0.201V14.986z"/>
			<path id="XMLID_1_" style="opacity:0.8;fill:#FFFFFF;" d="M361.051,14.986l3.581,2.074c-0.557-0.256-1.288-0.192-2.101,0.283
				l-91.366,52.744c-0.813,0.466-1.553,1.252-2.11,2.165l-3.709-2.137c0.548-0.914,1.297-1.699,2.11-2.174l91.366-52.744
				c0.877-0.502,1.663-0.548,2.229-0.201V14.986z"/>
		</g>
		<g id="XMLID_1756_">
			<g id="XMLID_1772_">
				<g id="XMLID_1854_">
					
						<ellipse id="XMLID_1856_" transform="matrix(0.5 -0.866 0.866 0.5 -21.9541 352.1683)" style="fill:#455A64;" cx="294.007" cy="195.097" rx="20.99" ry="12.119"/>
					<polygon id="XMLID_1855_" style="fill:#FFFFFF;" points="300.518,197.039 297.032,193.684 300.736,185.844 297.493,182.724 
						293.789,190.564 290.303,187.209 287.495,193.154 290.981,196.509 287.277,204.349 290.52,207.47 294.224,199.63 
						297.71,202.984 					"/>
				</g>
				<g id="XMLID_1773_">
					
						<ellipse id="XMLID_1853_" transform="matrix(0.5 -0.866 0.866 0.5 26.2845 380.0187)" style="fill:#455A64;" cx="342.245" cy="167.247" rx="20.99" ry="12.119"/>
					<path id="XMLID_1785_" style="fill:#FFFFFF;" d="M351.752,158.95c0-1.404-0.455-2.414-1.201-2.957l0.003-0.006l-0.016-0.012
						c-0.873-0.622-2.147-0.598-3.56,0.217c-2.425,1.396-4.429,5.622-4.733,8.503c-0.303-2.531-2.308-4.443-4.733-3.038
						c-1.413,0.816-2.687,2.264-3.56,3.893l-0.016,0.03l0.003,0.002c-0.746,1.405-1.201,2.94-1.201,4.344
						c0,4.35,3.493,6.65,6.421,7.813l3.086,1.211l3.086-4.774C348.258,169.634,351.752,163.3,351.752,158.95z"/>
				</g>
			</g>
			<g id="XMLID_1757_">
				<g id="XMLID_1762_">
					<polygon id="XMLID_1771_" style="fill:#FFFFFF;" points="305.642,218.376 302.126,220.406 302.126,215.459 305.642,213.429 
											"/>
					<polygon id="XMLID_1770_" style="fill:#FFFFFF;" points="301.393,215.882 284.695,225.522 284.695,222.765 280.008,230.702 
						284.695,233.226 284.695,230.47 301.393,220.829 					"/>
					<polygon id="XMLID_1768_" style="fill:#FFFFFF;" points="308.005,217.012 306.375,217.953 306.375,213.006 308.005,212.065 
											"/>
				</g>
				<g id="XMLID_1758_">
					<polygon id="XMLID_1761_" style="fill:#FFFFFF;" points="330.609,199.012 334.125,196.981 334.125,201.929 330.609,203.959 
											"/>
					<polygon id="XMLID_1760_" style="fill:#FFFFFF;" points="334.858,201.506 351.556,191.865 351.556,194.622 356.243,186.686 
						351.556,184.161 351.556,186.918 334.858,196.558 					"/>
					<polygon id="XMLID_1759_" style="fill:#FFFFFF;" points="328.246,200.376 329.876,199.435 329.876,204.382 328.246,205.323 
											"/>
				</g>
			</g>
		</g>
		<path id="XMLID_949_" style="fill:#FFFFFF;" d="M281.538,75.904l73.176-42.247c1.311-0.757,2.373-0.143,2.373,1.37v93.146
			c0,1.514-1.063,3.353-2.374,4.109l-73.173,42.172c-1.311,0.756-2.374,0.141-2.374-1.372l0-93.066
			C279.165,78.501,280.227,76.661,281.538,75.904z"/>
		<g id="XMLID_340_">
			<defs>
				<path id="XMLID_341_" d="M281.538,75.904l73.176-42.247c1.311-0.757,2.373-0.143,2.373,1.37v93.146
					c0,1.514-1.063,3.353-2.374,4.109l-73.173,42.172c-1.311,0.756-2.374,0.141-2.374-1.372l0-93.066
					C279.165,78.501,280.227,76.661,281.538,75.904z"/>
			</defs>
			<clipPath id="XMLID_00000141439441655737908810000002053113979885835393_">
				<use xlink:href="#XMLID_341_"  style="overflow:visible;"/>
			</clipPath>
			<g id="XMLID_1936_" style="clip-path:url(#XMLID_00000141439441655737908810000002053113979885835393_);">
				<g id="XMLID_1966_">
					<g id="Character_boy_3_">
						<path id="XMLID_2173_" style="fill:#FFA8A7;" d="M332.671,115.263c0,0,5.75-1.779,10.541,5.778
							c3.257,5.136,14.634,24.647,14.634,24.647s22.139-11.74,23.386-13.273c1.247-1.534,1.172-4.656,1.356-6.33
							c0.309-2.803-0.715-5.211-0.861-6.223c-0.256-1.765,2.275-1.857,3.529,0.585c0.916,1.784,0.987,3.824,1.774,3.849
							c0.268,0.009,2.748-2.256,3.109-2.65c1.372-1.5,3.85-4.015,5.728-3.665c0.62,0.115,1.104,0.637,1.251,1.348
							c0.232,1.122,0.142,2.057,0.704,2.993c0.239,0.398,0.606,0.709,0.741,1.202c0.177,0.646-0.08,1.266-0.022,1.941
							c0.078,0.927,0.975,1.316,1.105,2.221c0.094,0.655-0.238,1.412-0.234,2.099c0.002,0.443,0.145,0.837,0.142,1.281
							c-0.005,0.873-0.557,1.754-1.14,2.464c-2.05,2.496-4.144,3.92-6.572,5.504c-2.018,1.318-4.682,2.49-6.963,3.731
							c-2.282,1.241-28.377,21.26-31.849,18.894c-3.472-2.366-20.888-27.736-20.888-27.736
							C328.153,122.724,332.671,115.263,332.671,115.263z"/>
						<g id="XMLID_2170_">
							<path id="XMLID_2172_" style="fill:#455A64;" d="M322.57,115.434c0,0,6.338-2.571,10.45-2.309
								c4.112,0.262,7.157,1.436,10.173,6.285c4.027,6.474,10.69,17.652,10.69,17.652s-3.841,8.846-12.948,13.852l-12.278-18.527
								L322.57,115.434z"/>
						</g>
						<g id="Character_boy_4_">
							<g id="XMLID_1967_">
								<path id="XMLID_2165_" style="fill:#FAFAFA;" d="M302.457,126.632c-2.047,1.605-3.663,3.963-4.485,6.592
									c-0.731,2.342-1.363,5.551-1.363,9.654v21.057l-0.267,39.831c13.358,4.551,30.341,0.544,44.593-15.292
									c0,0-0.795-50.965-0.795-59.336c0-0.378-0.008-0.76-0.025-1.143c-0.518-11.819-10.713-17.292-20.755-11.619l-8.435,4.765
									L302.457,126.632L302.457,126.632z"/>
								<g id="XMLID_1969_">
									<g id="XMLID_1978_">
										<path id="XMLID_2029_" style="fill:#263238;" d="M311.601,83.305c0,8.981,6.305,14.573,14.083,12.488
											c7.778-2.084,14.083-11.054,14.083-20.036c0-8.981-6.715-8.984-14.493-6.9C317.496,70.942,311.601,74.324,311.601,83.305z
											"/>
										<path id="XMLID_2028_" style="fill:#263238;" d="M304.249,97.519c0,0,2.075,10.701,2.907,12.327
											c0.832,1.627,2.552,1.691,2.552,1.691l-0.145-7.88L304.249,97.519z"/>
										<path id="XMLID_2003_" style="fill:#263238;" d="M306.853,80.696c0,0-2.235,0.156-3.977,2.68
											c-1.708,2.474-0.754,8.531,1.373,14.144l3.909-0.529L306.853,80.696z"/>
										<path id="XMLID_1998_" style="fill:#FFA8A7;" d="M309.329,96.68c-0.784,0.75-1.902-0.688-2.868-1.597
											c-0.966-0.909-4.122-1.659-5.696,2.592c-1.604,4.333,1.389,8.687,3.873,8.922c4.281,0.405,4.923-2.938,4.923-2.938
											l0.145,18.272c7.181,7.615,19.767-1.362,14.109-4.733l-0.012-5.423c0,0,3.879-0.36,5.771-1.204
											c3.148-1.406,5.129-4.804,6.084-8.995c1.534-6.731,2.116-11.99,0.815-24.072c-1.426-13.242-15.149-9.706-22.56-2.335
											C306.504,82.54,309.329,96.68,309.329,96.68z"/>
										<g id="XMLID_1983_">
											<g id="XMLID_1994_">
												<path id="XMLID_1995_" style="fill:#263238;" d="M315.865,93.004c0-2.781,1.959-5.568,4.368-6.214l0.675-0.181
													c2.408-0.645,4.367,1.092,4.367,3.873c0,2.781-1.959,5.568-4.367,6.213l-0.675,0.181
													C317.824,97.522,315.865,95.785,315.865,93.004z M320.232,87.641c-2.002,0.536-3.631,2.854-3.631,5.166
													c0,2.312,1.629,3.756,3.631,3.22l0.675-0.181c2.002-0.536,3.631-2.854,3.631-5.166c0-2.312-1.629-3.756-3.631-3.22
													L320.232,87.641z"/>
											</g>
											<g id="XMLID_1990_">
												<path id="XMLID_1991_" style="fill:#263238;" d="M329.182,89.435c0-2.781,1.959-5.568,4.368-6.214l0.675-0.181
													c2.408-0.645,4.367,1.092,4.367,3.873s-1.959,5.568-4.367,6.213l-0.675,0.181
													C331.141,93.954,329.182,92.216,329.182,89.435z M333.549,84.072c-2.002,0.536-3.631,2.854-3.631,5.166
													c0,2.312,1.629,3.756,3.631,3.22l0.675-0.181c2.001-0.536,3.631-2.854,3.631-5.166c0-2.312-1.629-3.756-3.631-3.22
													L333.549,84.072z"/>
											</g>
											<g id="XMLID_1987_">
												<path id="XMLID_1989_" style="fill:#263238;" d="M325.22,89.502c0.404-0.874,1.31-1.65,2.307-1.976
													c0.859-0.281,1.617-0.157,2.013,0.338l0.587-0.671c-0.55-0.69-1.51-0.875-2.637-0.506
													c-1.253,0.41-2.363,1.383-2.898,2.541L325.22,89.502z"/>
											</g>
											<g id="XMLID_1984_">
												<polygon id="XMLID_1986_" style="fill:#263238;" points="306.978,95.2 316.27,92.71 316.27,91.86 306.978,94.349 
																									"/>
											</g>
										</g>
										<path id="XMLID_1982_" style="fill:#263238;" d="M309.329,98.202c-0.394,0.115-1.893-2.356-2.868-3.12
											c-1.352-1.058,0.392-14.387,0.392-14.387c-1.564-3.431,1.318-8.625,4.334-10.737c2.256-1.58,4.74-2.18,7.142-2.624
											c2.162-0.399,4.317-0.699,6.46-0.898c2.603-0.241,5.196-0.336,7.827-0.933c2.096-0.476,4.243-1.297,6.197-2.662
											c0.631-0.441,1.271,0.043,1.064,0.839c-0.169,0.649-0.405,1.37-0.734,2.044c-0.661,1.356-1.161,2.481-2.083,3.668
											c-0.938,1.208-1.957,2.331-3.035,3.353c-5.792,5.487-13.115,6.982-19.563,7.691c-1.454,0.16-1.764,1.87-2.548,6.526
											C311.225,91.05,310.654,97.818,309.329,98.202z"/>
										<path id="XMLID_1981_" style="fill:#263238;" d="M306.861,81.694l-4.739-1.668c0.673-1.748,2.279-2.792,3.587-2.331
											S307.533,79.946,306.861,81.694z"/>
										<path id="XMLID_1979_" style="fill:#F28F8F;" d="M323.805,111.774c0,0-7.027,0.248-9.484-0.602
											c-1.644-0.569-2.999-1.955-3.396-2.97c0,0,0.46,2.284,1.93,4.06c1.797,2.171,10.951,1.671,10.951,1.671L323.805,111.774z"
											/>
									</g>
									<g id="XMLID_1970_">
										<path id="XMLID_1977_" style="fill:#263238;" d="M322.116,91.225c0,0.933-0.631,1.857-1.408,2.063
											c-0.778,0.206-1.408-0.383-1.408-1.317c0-0.933,0.63-1.856,1.408-2.063C321.485,89.702,322.116,90.292,322.116,91.225z"/>
										<path id="XMLID_1976_" style="fill:#263238;" d="M319.854,85.099l-3.013,2.727c-0.444-0.88-0.13-2.205,0.702-2.958
											C318.375,84.115,319.41,84.218,319.854,85.099z"/>
										<path id="XMLID_1975_" style="fill:#F28F8F;" d="M323.168,102.176l3.215,0.532c-0.318,1.149-1.296,1.962-2.184,1.815
											C323.311,104.376,322.85,103.325,323.168,102.176z"/>
										<path id="XMLID_1973_" style="fill:#263238;" d="M335.034,82.462l-2.747-1.707c0.56-1.059,1.63-1.534,2.388-1.063
											C335.434,80.163,335.595,81.403,335.034,82.462z"/>
										<path id="XMLID_1972_" style="fill:#263238;" d="M333.828,87.624c0,0.933-0.63,1.856-1.409,2.062
											c-0.778,0.206-1.408-0.383-1.408-1.317c0-0.933,0.63-1.856,1.408-2.062C333.198,86.101,333.828,86.69,333.828,87.624z"/>
										<polygon id="XMLID_1971_" style="fill:#F28F8F;" points="326.868,88.183 327.032,98.001 332.08,95.364 										"/>
									</g>
								</g>
							</g>
						</g>
					</g>
				</g>
				<g id="XMLID_1939_">
					<path id="XMLID_1940_" style="fill:#FFA8A7;" d="M282.587,186.864c2.957-40.584,8.968-55.129,18.853-59.401
						c3.415,2.543,4.238,14.473,0.668,23.535c0,0-7.677,27.054-8.112,36.251c-0.383,8.079,0.574,19.234,1.571,25.586
						c0.176,1.125,0.747,2.015,1.554,2.539c2.165,1.406,2.026,3.452,3.572,5.387c1.211,1.515,2.34,1.779,2.108,2.345
						c-0.299,0.729-1.387,1.991-3.012,1.614c-0.818-0.19-1.387-0.587-2.653-1.432c0,0,0.713,2.866,2.789,6.036
						c2.814,4.296,2.679,7.19-3.922,8.166c-4.136,0.612-7.145-1.955-9.226-12.317c-0.6-2.985-2.01-8.357-2.597-12.226
						C282.495,201.832,282.111,193.396,282.587,186.864z"/>
				</g>
				<path id="XMLID_1938_" style="fill:#455A64;" d="M304.249,125.47c0,0-7.203,2.52-10.839,8.416
					c-3.636,5.896-7.106,15.389-9.54,32.234c0,0,4.556,6.229,16.444,1.051c0,0,5.172-21.496,5.633-29.991
					C306.451,127.914,304.249,125.47,304.249,125.47z"/>
			</g>
		</g>
	</g>
</g>
<g id="Profile_window_2">
	<g id="XMLID_60_">
		<g id="XMLID_137_">
			<g id="XMLID_202_">
				<path id="XMLID_207_" style="fill:#27DEBF;" d="M95.171,351.606l-3.645-2.11h-0.009l-0.037-0.027v-0.009
					c-0.539-0.338-0.877-1.014-0.877-1.991V173.66c0-1.05,0.402-2.229,1.023-3.252l3.709,2.138c-0.63,1.023-1.023,2.202-1.023,3.261
					v173.807C94.312,350.573,94.641,351.268,95.171,351.606z"/>
				<path id="XMLID_206_" style="opacity:0.3;fill:#FFFFFF;" d="M95.171,351.606l-3.645-2.11h-0.009l-0.037-0.027v-0.009
					c-0.539-0.338-0.877-1.014-0.877-1.991V173.66c0-1.05,0.402-2.229,1.023-3.252l3.709,2.138c-0.63,1.023-1.023,2.202-1.023,3.261
					v173.807C94.312,350.573,94.641,351.268,95.171,351.606z"/>
				<path id="XMLID_205_" style="fill:#27DEBF;" d="M97.454,170.38l91.365-52.745c1.731-0.999,3.134-0.189,3.134,1.809v173.804
					c0,1.998-1.403,4.429-3.134,5.428l-91.364,52.745c-1.731,0.999-3.134,0.189-3.134-1.809l-0.001-173.804
					C94.321,173.809,95.724,171.379,97.454,170.38z"/>
				<path id="XMLID_5_" style="opacity:0.6;fill:#FFFFFF;" d="M97.454,170.38l91.365-52.745c1.731-0.999,3.134-0.189,3.134,1.809
					v173.804c0,1.998-1.403,4.429-3.134,5.428l-91.364,52.745c-1.731,0.999-3.134,0.189-3.134-1.809l-0.001-173.804
					C94.321,173.809,95.724,171.379,97.454,170.38z"/>
				<path id="XMLID_204_" style="fill:#27DEBF;" d="M187.331,115.28l3.581,2.074c-0.557-0.256-1.288-0.192-2.095,0.299
					l-91.369,52.731c-0.819,0.45-1.555,1.248-2.113,2.162l-3.709-2.138c0.548-0.913,1.297-1.699,2.11-2.174l91.366-52.744
					c0.877-0.502,1.663-0.548,2.229-0.201V115.28z"/>
				<path id="XMLID_203_" style="opacity:0.8;fill:#FFFFFF;" d="M187.331,115.28l3.581,2.074c-0.557-0.256-1.288-0.192-2.095,0.299
					l-91.369,52.731c-0.819,0.45-1.555,1.248-2.113,2.162l-3.709-2.138c0.548-0.913,1.297-1.699,2.11-2.174l91.366-52.744
					c0.877-0.502,1.663-0.548,2.229-0.201V115.28z"/>
			</g>
			<g id="XMLID_185_">
				<g id="XMLID_195_">
					<g id="XMLID_199_">
						
							<ellipse id="XMLID_201_" transform="matrix(0.5 -0.866 0.866 0.5 -195.6726 251.869)" style="fill:#455A64;" cx="120.287" cy="295.391" rx="20.99" ry="12.119"/>
						<polygon id="XMLID_200_" style="fill:#FFFFFF;" points="126.799,297.333 123.313,293.978 127.016,286.138 123.773,283.018 
							120.07,290.858 116.584,287.503 113.775,293.448 117.261,296.803 113.558,304.643 116.801,307.764 120.504,299.924 
							123.991,303.278 						"/>
					</g>
					<g id="XMLID_196_">
						
							<ellipse id="XMLID_198_" transform="matrix(0.5 -0.866 0.866 0.5 -147.4342 279.7193)" style="fill:#455A64;" cx="168.525" cy="267.541" rx="20.99" ry="12.119"/>
						<path id="XMLID_197_" style="fill:#FFFFFF;" d="M178.032,259.244c0-1.404-0.455-2.414-1.201-2.957l0.003-0.006l-0.016-0.012
							c-0.873-0.622-2.147-0.599-3.56,0.217c-2.425,1.396-4.429,5.622-4.733,8.504c-0.304-2.531-2.308-4.443-4.733-3.039
							c-1.413,0.816-2.687,2.264-3.56,3.893l-0.016,0.03l0.003,0.002c-0.746,1.405-1.201,2.94-1.201,4.344
							c0,4.35,3.493,6.65,6.421,7.814l3.086,1.211l3.086-4.775C174.538,269.928,178.032,263.594,178.032,259.244z"/>
					</g>
				</g>
				<g id="XMLID_186_">
					<g id="XMLID_191_">
						<polygon id="XMLID_194_" style="fill:#FFFFFF;" points="131.923,318.67 128.406,320.7 128.406,315.753 131.923,313.723 						
							"/>
						<polygon id="XMLID_193_" style="fill:#FFFFFF;" points="127.674,316.176 110.976,325.816 110.976,323.059 106.289,330.996 
							110.976,333.52 110.976,330.764 127.674,321.124 						"/>
						<polygon id="XMLID_192_" style="fill:#FFFFFF;" points="134.286,317.306 132.656,318.247 132.656,313.3 134.286,312.359 
													"/>
					</g>
					<g id="XMLID_187_">
						<polygon id="XMLID_190_" style="fill:#FFFFFF;" points="156.889,299.306 160.406,297.275 160.406,302.223 156.889,304.253 
													"/>
						<polygon id="XMLID_189_" style="fill:#FFFFFF;" points="161.139,301.8 177.836,292.159 177.836,294.916 182.524,286.98 
							177.836,284.455 177.836,287.212 161.139,296.852 						"/>
						<polygon id="XMLID_188_" style="fill:#FFFFFF;" points="154.527,300.67 156.157,299.729 156.157,304.676 154.527,305.617 
													"/>
					</g>
				</g>
			</g>
			<path id="XMLID_184_" style="fill:#FFFFFF;" d="M107.818,176.198l73.176-42.248c1.311-0.757,2.373-0.143,2.373,1.37v93.145
				c0,1.514-1.063,3.353-2.374,4.109l-73.173,42.171c-1.311,0.756-2.374,0.142-2.374-1.372l0-93.066
				C105.445,178.795,106.508,176.955,107.818,176.198z"/>
			<g id="XMLID_138_">
				<defs>
					<path id="XMLID_139_" d="M107.818,176.198l73.176-42.248c1.311-0.757,2.373-0.143,2.373,1.37v93.145
						c0,1.514-1.063,3.353-2.374,4.109l-73.173,42.171c-1.311,0.756-2.374,0.142-2.374-1.372l0-93.066
						C105.445,178.795,106.508,176.955,107.818,176.198z"/>
				</defs>
				<clipPath id="XMLID_00000014614468554629244740000003016750808812087457_">
					<use xlink:href="#XMLID_139_"  style="overflow:visible;"/>
				</clipPath>
				<g id="XMLID_140_" style="clip-path:url(#XMLID_00000014614468554629244740000003016750808812087457_);">
					<g id="Character_3_">
						<g id="XMLID_182_">
							<path id="XMLID_183_" style="fill:#B16668;" d="M166.045,269.586c-8.825-38.693-19.436-45.712-10.008-53.771
								c10.972-1.671,15.214,1.774,16.903,13.113c0.826,5.544,2.62,28.742,4.874,37.412c1.98,7.617,4.64,17.052,7.6,22.5
								c0.524,0.965,1.405,1.549,2.433,1.697c2.759,0.396,3.572,1.948,5.818,3.09c1.759,0.894,3.059,0.667,2.975,1.287
								c-0.107,0.797-0.91,2.415-2.78,2.744c-0.941,0.165-1.675,0.036-3.295-0.217c0,0,1.621,2.349,4.805,4.41
								c4.316,2.794,5.029,5.521-1.823,9.17c-4.293,2.286-8.309,1.17-13.63-7.529c-1.533-2.506-3.941-6.468-5.363-10.087
								C170.849,283.983,167.465,275.814,166.045,269.586z"/>
						</g>
					</g>
					<g id="XMLID_144_">
						<g id="XMLID_145_">
							<g id="XMLID_146_">
								<g id="XMLID_179_">
									<g id="XMLID_180_">
										<path id="XMLID_181_" style="fill:#263238;" d="M171.568,207.342l-28.839,7.727c-6.853,1.836-12.408-3.09-12.408-11.003
											v-11.146c0-12.679,8.901-25.342,19.882-28.285l1.484-0.398c10.98-2.942,19.882,4.951,19.882,17.63V207.342
											L171.568,207.342z"/>
									</g>
								</g>
								<path id="XMLID_178_" style="fill:#263238;" d="M136.99,174.65c1.175-1.564,1.252-3.697,0.17-4.765
									c-1.082-1.067-2.911-0.665-4.087,0.899L136.99,174.65z"/>
								<path id="XMLID_177_" style="fill:#263238;" d="M137.185,174.894c-0.329-1.717-1.863-2.461-3.426-1.662
									c-1.563,0.799-2.563,2.839-2.234,4.555L137.185,174.894z"/>
								<g id="XMLID_174_">
									<g id="XMLID_175_">
										<path id="XMLID_176_" style="fill:#37474F;" d="M142.833,219.786c0,0-12.037,2.847-13.49,3.989
											c8.714,9.347,1.588,29.073,1.588,29.073l4.84,16.849c-4.857,8.482-7.342,14.157-9.932,22.725
											c-2.893,9.569-4.734,16.768-6.958,45.587c11.44,9.114,49.547-0.851,59.238-18.111c0,0-2.976-18.898-6.833-36.445
											c-2.816-12.812-5.6-19.744-4.908-24.366c5.106-19.516,5.505-24.378,4.599-28.183
											c-2.549-10.71-12.609-15.723-15.092-15.057L142.833,219.786z"/>
									</g>
								</g>
								<g id="XMLID_171_">
									<g id="XMLID_172_">
										<path id="XMLID_173_" style="fill:#B16668;" d="M163.805,171.295c2.178,0.903,4.871,6.508,4.605,19.842
											c-0.225,11.301-3.381,14.923-4.965,16.148c-1.584,1.225-4.64,1.557-7.611,1.781v6.746c0,0,4.106,4.406,3.847,7.569
											c-0.258,3.163-5.928,5.413-9.77,3.42c-3.842-1.993-7.078-7.016-7.078-7.016l0.067-15.529c0,0-1.748,2.429-4.713,0.231
											c-2.447-1.815-3.272-5.76-1.365-8.507c1.907-2.747,5.432-3.082,6.784-0.257c0,0,1.651-5.737,8.493-10.152
											C158.283,181.581,161.644,177.994,163.805,171.295z"/>
									</g>
								</g>
								<g id="XMLID_168_">
									<g id="XMLID_169_">
										<path id="XMLID_170_" style="fill:#263238;" d="M157.541,191.225c0.035,0.801-0.484,1.626-1.159,1.844
											c-0.675,0.218-1.251-0.254-1.287-1.055c-0.035-0.8,0.484-1.626,1.159-1.844
											C156.93,189.952,157.506,190.425,157.541,191.225z"/>
									</g>
								</g>
								<g id="XMLID_165_">
									<g id="XMLID_166_">
										<path id="XMLID_167_" style="fill:#9A4A4D;" d="M157.868,200.667l2.843,0.285c-0.236,1.003-1.064,1.752-1.849,1.673
											C158.077,202.546,157.632,201.669,157.868,200.667z"/>
									</g>
								</g>
								<g id="XMLID_162_">
									<g id="XMLID_163_">
										<path id="XMLID_164_" style="fill:#263238;" d="M167.578,184.196l-2.477-1.319c0.452-0.938,1.373-1.403,2.057-1.039
											C167.842,182.202,168.03,183.258,167.578,184.196z"/>
									</g>
								</g>
								<g id="XMLID_159_">
									<g id="XMLID_160_">
										<path id="XMLID_161_" style="fill:#263238;" d="M153.979,188.886l2.477-2.646c-0.452-0.696-1.373-0.667-2.057,0.064
											C153.715,187.035,153.527,188.191,153.979,188.886z"/>
									</g>
								</g>
								<g id="XMLID_156_">
									<g id="XMLID_157_">
										<path id="XMLID_158_" style="fill:#263238;" d="M167.007,187.667c0.035,0.801-0.484,1.626-1.159,1.844
											c-0.675,0.218-1.251-0.255-1.286-1.055c-0.035-0.8,0.484-1.626,1.159-1.844
											C166.396,186.394,166.972,186.866,167.007,187.667z"/>
									</g>
								</g>
								<g id="XMLID_153_">
									<g id="XMLID_154_">
										<polygon id="XMLID_155_" style="fill:#9A4A4D;" points="161.232,188.405 161.427,196.862 165.305,194.436 										"/>
									</g>
								</g>
								<g id="XMLID_150_">
									<g id="XMLID_151_">
										<path id="XMLID_152_" style="fill:#9A4A4D;" d="M155.834,209.066c-3.131,0.365-9.571-0.046-10.575-2.717
											c0,0,0.335,1.758,2.258,3.147c1.924,1.389,8.317,1.821,8.317,1.821V209.066z"/>
									</g>
								</g>
								<g id="XMLID_147_">
									<g id="XMLID_148_">
										<polygon id="XMLID_149_" style="fill:#263238;" points="133.433,261.558 142.232,272.748 135.771,269.698 										"/>
									</g>
								</g>
							</g>
						</g>
					</g>
					<g id="XMLID_141_">
						<g id="XMLID_142_">
							<path id="XMLID_143_" style="fill:#B16668;" d="M108.577,284.212c7.455-37.187,12.614-54.739,20.765-60.436
								c4.09,0.416,5.328,5.85,5.76,8.956c0.774,5.576-0.553,13.355-4.171,20.117c0,0-10.159,24.906-11.895,34.792
								c-1.519,8.652-3.239,19.476-3.144,26.564c0.017,1.274,0.448,2.397,1.2,3.134c1.997,1.957,2.002,3.96,3.292,6.369
								c1.008,1.883,2.11,2.392,1.796,2.961c-0.404,0.731-1.68,1.884-3.266,1.154c-0.798-0.368-1.317-0.911-2.475-2.079
								c0,0,0.315,3.249,1.963,7.098c2.233,5.216,1.689,8.328-5.108,8.078c-4.259-0.156-6.933-3.536-7.571-15.185
								c-0.184-3.356-0.462-8.653-0.112-13.052C106.521,301.229,107.176,291.201,108.577,284.212z"/>
						</g>
					</g>
				</g>
			</g>
		</g>
		<path id="XMLID_136_" style="opacity:0.1;" d="M167.933,310.745l20.886-12.069c1.731-0.999,3.134-3.43,3.134-5.428V119.444
			c0-1.998-1.403-2.809-3.134-1.809L167.933,129.7V310.745z"/>
		<path id="XMLID_61_" style="fill:#27DEBF;" d="M167.933,129.7l20.878-12.063c0.813-0.475,1.544-0.539,2.101-0.283l-3.581-2.074
			v0.009c-0.566-0.347-1.352-0.301-2.229,0.201l-20.883,12.066L167.933,129.7z"/>
		<path id="XMLID_6_" style="opacity:0.5;fill:#FFFFFF;" d="M167.933,129.7l20.878-12.063c0.813-0.475,1.544-0.539,2.101-0.283
			l-3.581-2.074v0.009c-0.566-0.347-1.352-0.301-2.229,0.201l-20.883,12.066L167.933,129.7z"/>
	</g>
</g>
<g id="Profile_window_1">
	<g id="XMLID_740_">
		<g id="XMLID_514_">
			<path id="XMLID_520_" style="fill:#27DEBF;" d="M284.993,88.878l-3.709-2.143v0.003c-0.569-0.341-1.359-0.302-2.235,0.204
				l-91.365,52.745c-1.731,0.999-3.134,3.429-3.134,5.428l0.001,173.804c0,0.973,0.336,1.657,0.877,1.995l-0.002,0.008l0.039,0.023
				c0.003,0.002,0.005,0.003,0.008,0.005l3.697,2.136l89.879-55.103c1.731-0.999,3.134-3.429,3.134-5.428L284.993,88.878z"/>
			<path id="XMLID_528_" style="opacity:0.1;" d="M189.11,323.057l-3.645-2.11h-0.009l-0.037-0.027v-0.009
				c-0.539-0.338-0.877-1.014-0.877-1.991V145.111c0-1.051,0.402-2.229,1.023-3.252l3.709,2.137
				c-0.63,1.023-1.023,2.201-1.023,3.261v173.807C188.251,322.024,188.58,322.719,189.11,323.057z"/>
			<path id="XMLID_542_" style="opacity:0.5;fill:#FFFFFF;" d="M281.27,86.731l3.581,2.074c-0.557-0.256-1.288-0.192-2.101,0.283
				l-91.366,52.744c-0.813,0.466-1.553,1.251-2.11,2.165l-3.709-2.137c0.548-0.913,1.297-1.699,2.11-2.174l91.366-52.744
				c0.877-0.502,1.663-0.548,2.229-0.201V86.731z"/>
		</g>
		<g id="XMLID_739_">
			<g id="XMLID_735_">
				<g id="XMLID_608_">
					
						<ellipse id="XMLID_570_" transform="matrix(0.5 -0.866 0.866 0.5 -123.9781 318.9491)" style="fill:#455A64;" cx="214.226" cy="266.842" rx="20.99" ry="12.119"/>
					<polygon id="XMLID_575_" style="fill:#FFFFFF;" points="220.738,268.784 217.252,265.429 220.956,257.589 217.713,254.469 
						214.009,262.309 210.523,258.954 207.714,264.9 211.201,268.254 207.497,276.094 210.74,279.215 214.444,271.375 
						217.93,274.729 					"/>
				</g>
				<g id="XMLID_624_">
					
						<ellipse id="XMLID_626_" transform="matrix(0.5 -0.866 0.866 0.5 -75.7395 346.7997)" style="fill:#455A64;" cx="262.465" cy="238.992" rx="20.99" ry="12.119"/>
					<path id="XMLID_625_" style="fill:#FFFFFF;" d="M271.971,230.695c0-1.404-0.455-2.414-1.201-2.957l0.003-0.006l-0.016-0.012
						c-0.873-0.622-2.147-0.598-3.56,0.217c-2.425,1.396-4.429,5.622-4.733,8.503c-0.303-2.531-2.308-4.443-4.733-3.038
						c-1.413,0.816-2.687,2.264-3.56,3.893l-0.016,0.03l0.003,0.002c-0.746,1.405-1.201,2.941-1.201,4.344
						c0,4.35,3.494,6.65,6.421,7.813l3.086,1.211l3.086-4.775C268.478,241.379,271.971,235.045,271.971,230.695z"/>
				</g>
			</g>
			<g id="XMLID_716_">
				<g id="XMLID_627_">
					<polygon id="XMLID_633_" style="fill:#FFFFFF;" points="225.862,290.121 222.346,292.151 222.346,287.204 225.862,285.174 
											"/>
					<polygon id="XMLID_636_" style="fill:#FFFFFF;" points="221.613,287.627 204.915,297.267 204.915,294.51 200.228,302.447 
						204.915,304.971 204.915,302.215 221.613,292.574 					"/>
					<polygon id="XMLID_638_" style="fill:#FFFFFF;" points="228.225,288.757 226.595,289.698 226.595,284.751 228.225,283.81 					
						"/>
				</g>
				<g id="XMLID_631_">
					<polygon id="XMLID_644_" style="fill:#FFFFFF;" points="250.829,270.757 254.345,268.726 254.345,273.674 250.829,275.704 
											"/>
					<polygon id="XMLID_642_" style="fill:#FFFFFF;" points="255.078,273.251 271.776,263.61 271.776,266.367 276.463,258.431 
						271.776,255.906 271.776,258.663 255.078,268.303 					"/>
					<polygon id="XMLID_637_" style="fill:#FFFFFF;" points="248.466,272.121 250.096,271.18 250.096,276.127 248.466,277.068 					
						"/>
				</g>
			</g>
		</g>
		<path id="XMLID_2_" style="fill:#FFFFFF;" d="M201.758,147.649l73.176-42.247c1.311-0.757,2.373-0.143,2.373,1.37v93.146
			c0,1.514-1.063,3.353-2.374,4.109l-73.173,42.171c-1.311,0.756-2.374,0.141-2.374-1.372l0-93.066
			C199.385,150.246,200.447,148.406,201.758,147.649z"/>
		<g id="XMLID_714_">
			<defs>
				<path id="XMLID_713_" d="M201.758,147.649l73.176-42.247c1.311-0.757,2.373-0.143,2.373,1.37v93.146
					c0,1.514-1.063,3.353-2.374,4.109l-73.173,42.171c-1.311,0.756-2.374,0.141-2.374-1.372l0-93.066
					C199.385,150.246,200.447,148.406,201.758,147.649z"/>
			</defs>
			<clipPath id="XMLID_00000080925479421425275770000018009212083286383781_">
				<use xlink:href="#XMLID_713_"  style="overflow:visible;"/>
			</clipPath>
			<g id="XMLID_647_" style="clip-path:url(#XMLID_00000080925479421425275770000018009212083286383781_);">
				<g id="Character_5_">
					<g id="XMLID_874_">
						<path id="XMLID_920_" style="fill:#FFA8A7;" d="M258.303,243.693c-8.214-36.015-17.606-42.371-8.83-49.872
							c9.026-3.435,13.676,1.474,15.249,12.027c0.769,5.161,2.439,26.752,4.537,34.823c1.843,7.09,4.319,15.872,7.074,20.943
							c0.488,0.898,1.308,1.441,2.264,1.579c2.568,0.369,3.325,1.813,5.415,2.876c1.637,0.832,2.847,0.621,2.769,1.198
							c-0.1,0.742-0.847,2.248-2.587,2.554c-0.876,0.154-1.559,0.033-3.067-0.202c0,0,1.508,2.186,4.473,4.105
							c4.018,2.601,4.681,5.139-1.697,8.535c-3.996,2.128-7.734,1.089-12.687-7.008c-1.427-2.333-3.668-6.021-4.992-9.389
							C262.775,257.093,259.625,249.489,258.303,243.693z"/>
						<g id="XMLID_875_">
							<path id="XMLID_910_" style="fill:#455A64;" d="M235.038,198.167L235.038,198.167c-8.925,3.101-9.551,8.245-11.784,14.287
								c-1.7,4.599-1.719,9.41-0.422,13.396l6.219,19.109c0,0-4.051,8.935-6.293,17.494c15.608,5.877,35.097-4.633,39.79-13.231
								c0.199-1.61-1.008-13.459-1.75-21.212c2.749-8.699,3.474-13.941,2.315-18.893c-2.153-9.193-10.511-16.473-14.209-15.135
								L235.038,198.167z"/>
							<g id="XMLID_877_">
								<g id="XMLID_906_">
									<path id="XMLID_909_" style="fill:#263238;" d="M245.65,185.86l-6.583,1.796c-9.169,2.502-16.633-4.044-16.672-14.621l0,0
										c-0.047-12.674,8.822-25.378,19.808-28.376l0,0c10.987-2.998,19.931,4.846,19.978,17.52l0,0
										C262.22,172.756,254.819,183.358,245.65,185.86z"/>
									<path id="XMLID_908_" style="fill:#263238;" d="M237.049,140.641c2.841,4.068-0.173,8.175-4.355,12.576
										c-4.182,4.401-7.95,7.429-10.79,3.361c-2.841-4.068-1.278-9.876,2.904-14.277
										C228.991,137.9,234.209,136.573,237.049,140.641z"/>
									<path id="XMLID_907_" style="fill:#263238;" d="M226.812,158.325l-4.21,4.722c-0.916-1.09-0.715-3.031,0.447-4.335
										C224.212,157.408,225.896,157.234,226.812,158.325z"/>
								</g>
								<g id="XMLID_891_">
									<g id="XMLID_904_">
										<path id="XMLID_905_" style="fill:#FFA8A7;" d="M254.5,151.594c2.106,0.859,4.726,6.247,4.517,19.097
											c-0.177,10.891-3.211,14.398-4.736,15.586c-1.525,1.188-4.474,1.523-7.342,1.754l0.163,6.542c0,0,4.832,3.27,4.594,6.32
											c-0.238,3.049-6.696,6.159-10.412,4.258c-3.236-1.655-6.022-4.228-6.688-4.865c-0.1-0.096-0.151-0.239-0.151-0.408
											l-0.011-16.417c0,0-1.68,2.35-4.55,0.246c-2.369-1.737-3.18-5.535-1.348-8.191c1.831-2.656,5.234-2.997,6.549-0.281
											c0,0,4.571-1.054,10.642-6.571C251.798,163.146,254.111,155.904,254.5,151.594z"/>
									</g>
									<g id="XMLID_902_">
										<path id="XMLID_903_" style="fill:#263238;" d="M248.523,170.83c0.037,0.771-0.461,1.57-1.112,1.783
											c-0.651,0.213-1.209-0.239-1.246-1.01c-0.037-0.771,0.461-1.569,1.112-1.783
											C247.929,169.607,248.486,170.059,248.523,170.83z"/>
									</g>
									<g id="XMLID_900_">
										<path id="XMLID_901_" style="fill:#F28F8F;" d="M248.873,179.926l2.746,0.261c-0.225,0.967-1.021,1.694-1.779,1.622
											C249.081,181.737,248.648,180.894,248.873,179.926z"/>
									</g>
									<g id="XMLID_898_">
										<path id="XMLID_899_" style="fill:#263238;" d="M258.189,164.006l-2.396-1.258c0.433-0.906,1.321-1.359,1.982-1.011
											C258.437,162.084,258.622,163.1,258.189,164.006z"/>
									</g>
									<g id="XMLID_896_">
										<path id="XMLID_897_" style="fill:#263238;" d="M257.651,167.354c0.037,0.771-0.461,1.569-1.112,1.783
											c-0.651,0.214-1.209-0.239-1.246-1.01c-0.037-0.771,0.461-1.569,1.112-1.783
											C257.056,166.131,257.614,166.583,257.651,167.354z"/>
									</g>
									<g id="XMLID_894_">
										<polygon id="XMLID_895_" style="fill:#F28F8F;" points="252.333,167.347 252.295,176.242 256.031,173.885 										"/>
									</g>
									<g id="XMLID_892_">
										<path id="XMLID_893_" style="fill:#F28F8F;" d="M246.939,188.031c-3.021,0.367-9.241,0.003-10.22-2.566
											c0,0,0.329,1.693,2.191,3.021c1.863,1.328,8.083,1.725,8.083,1.725L246.939,188.031z"/>
									</g>
								</g>
							</g>
							<path id="XMLID_876_" style="fill:#37474F;" d="M239.03,260.042c-5.127-0.028-8.379-5.145-7.025-11.387
								c0.051-0.237,0.105-0.443,0.159-0.609c1.004-3.055,3.161-3.267,3.161-3.267l0,0c-2.023-1.007-2.976-3.403-3.45-6.025
								l-2.349-12.157c0,0-0.422-2.765,0.482-6.445l-6.273-6.697c0,0-0.45,0.482-1.159,1.241c-0.978,3.891-0.831,7.812,0.257,11.154
								l6.22,19.109c0,0-3.841,8.21-6.293,17.493c11.503,4.331,25.106-0.24,33.349-6.385
								C249.596,258.979,243.564,260.067,239.03,260.042z"/>
						</g>
					</g>
				</g>
				<g id="XMLID_648_">
					<g id="XMLID_685_">
						<path id="XMLID_709_" style="fill:#FFA8A7;" d="M206.784,257.455c6.939-34.613,12.331-50.117,19.918-55.42
							c2.462-1.721,5.111-0.678,5.512,2.214c0.721,5.19-0.586,13.521-3.954,19.815c0,0-10.126,27.381-11.741,36.583
							c-1.414,8.053-3.015,18.128-2.926,24.725c0.016,1.185,0.417,2.232,1.117,2.917c1.858,1.822,1.864,3.686,3.064,5.928
							c0.938,1.753,1.964,2.227,1.672,2.756c-0.376,0.68-1.563,1.754-3.04,1.074c-0.743-0.342-1.226-0.848-2.303-1.935
							c0,0,0.294,3.024,1.827,6.606c2.078,4.855,1.572,7.751-4.754,7.519c-3.964-0.145-6.453-3.291-7.047-14.134
							c-0.171-3.124-0.43-8.054-0.105-12.149C204.869,273.294,205.479,263.96,206.784,257.455z"/>
					</g>
				</g>
			</g>
		</g>
	</g>
</g>
<g id="Character">
	<g id="XMLID_1878_">
		<g id="Character_8_">
			<g id="XMLID_2454_">
				<path id="XMLID_2455_" style="fill:#FFA8A7;" d="M369.38,281.107c0.802-29.79-1.586-36.929-9.517-42.387l-3.073,17.262
					c0,0,3.613,20.342,3.225,27.117c-0.341,5.952-0.92,13.398-2.327,18.21c-0.249,0.852-0.825,1.57-1.578,2.041
					c-2.02,1.263-2.834,2.56-4.355,4.153c-1.191,1.247-2.205,1.557-2.048,1.954c0.201,0.51,1.051,1.335,2.511,0.89
					c0.734-0.224,1.682-0.799,2.865-1.554c0,0-0.845,2.482-2.935,5.044c-2.832,3.472-2.956,5.604,2.762,5.655
					c3.583,0.032,6.442-2.178,9.138-10.073c0.777-2.275,1.993-5.865,2.518-8.866C367.935,292.738,369.25,285.902,369.38,281.107z"/>
			</g>
			<path id="XMLID_2453_" style="fill:#27DEBF;" d="M353.189,236.458c3.786-0.549,8.932,0.245,12.256,6.19
				c3.324,5.945,4.139,16.171,4.517,26.34c0,0-6.603,5.522-14.523,2.807L353.189,236.458z"/>
			<path id="XMLID_2452_" style="opacity:0.1;" d="M353.189,236.458c3.786-0.549,8.932,0.245,12.256,6.19
				c3.324,5.945,4.139,16.171,4.517,26.34c0,0-6.603,5.522-14.523,2.807L353.189,236.458z"/>
			<g id="XMLID_1174_">
				<g id="XMLID_2417_">
					<g id="XMLID_2450_">
						<path id="XMLID_2451_" style="fill:#263238;" d="M364.327,400.306c0.601,0.228,0.753,1.373,0.844,3.649
							c0.069,1.723,0.438,4.73-1.58,5.33c-2.017,0.6-4.974,0.294-6.267-1.33c-1.614-2.027-2.705-3.811-5.009-6.284
							c-1.998-2.145-4.16-4.148-4.966-7.156c-0.729-2.719-0.122-3.898,1.733-4.688c2.551-1.087,6.557,2.465,8.556,3.024
							C359.359,393.333,363.726,400.079,364.327,400.306z"/>
					</g>
					<g id="XMLID_2447_">
						<path id="XMLID_2449_" style="fill:#FFA8A7;" d="M364.327,398.198v2.795c0,0-2.907,2.233-7.064,0.191
							c-0.122-0.269-0.734-3.998-0.734-3.998L364.327,398.198z"/>
					</g>
					<g id="XMLID_2440_">
						<path id="XMLID_2443_" style="fill:#263238;" d="M341.689,416.416c0,0,0.802,2.431,1.234,4.557
							c0.343,1.69,0.836,4.515,0.244,5.786c-0.592,1.271-2.9,2.091-6.479,2.064c-2.318-0.018-5.93,1.556-8.404,2.936
							c-2.555,1.426-7.867,1.993-10.569,1.676c-3.184-0.374-6.483-2.22-6.998-3.539c-0.515-1.319,0.169-2.688,7.673-5.885
							c0.069-0.029,10.432-3.399,14.063-7.406L341.689,416.416z"/>
					</g>
					<g id="XMLID_2427_">
						<path id="XMLID_2432_" style="fill:#FFA8A7;" d="M341.689,413.394c0,0-0.01,2.074,0,3.26c0.01,1.185-1.39,2.952-5.014,2.823
							c-2.546-0.091-4.323-0.775-4.222-2.872v-3.022L341.689,413.394z"/>
					</g>
					<g id="XMLID_2423_">
						<path id="XMLID_2426_" style="fill:#37474F;" d="M366.145,361.103c-1.28-9.133-3.301-14.558-3.301-14.558
							s0.998-12.561,1.477-24.469c0.517-12.863-0.027-29.033,0.217-32.242c0,0-41.508-8.398-42.248,6.471
							c-0.741,14.87,1.638,52.722,2.129,59.254c0.491,6.533,1.62,12.309,2.969,22.897c1.332,10.449,5.066,35.126,5.066,35.126
							c4.742,2.563,9.235-0.189,9.235-0.189s2.921-29.733,2.615-37.27c-0.375-9.204-2.858-16.452-2.858-16.452
							s0.787-12.261,1.482-22.926c0.695-10.665,1.431-15.788,1.592-20.427l0.894-0.443c0,0,0.91,18.399,1.401,24.932
							c0.491,6.533,1.53,12.796,3.42,24.929c1.639,10.526,6.522,32.797,6.522,32.797c4.742,2.564,7.571-0.336,7.571-0.336
							S367.425,370.236,366.145,361.103z"/>
					</g>
					<g id="XMLID_2418_">
						<path id="XMLID_2422_" style="fill:#263238;" d="M344.52,316.319c0,0,10.069-4.962,15.109-9.437c0,0-4.679,6.594-10.822,9.517
							c0,0-2.185,22.856-2.173,22.403l-1.262-22.516L344.52,316.319z"/>
					</g>
				</g>
				<g id="XMLID_2399_">
					<g id="XMLID_2400_">
						<polygon id="XMLID_2401_" style="fill:#FFA8A7;" points="335.558,231.748 338.014,245.267 350.225,244.375 347.661,229.05 
													"/>
					</g>
				</g>
				<g id="XMLID_2390_">
					<g id="XMLID_2391_">
						<path id="XMLID_2395_" style="fill:#27DEBF;" d="M363.121,243.387c-1.209-3.676-5.872-7.676-10.539-6.809
							c-8.573,1.592-15.373,3.295-20.435,5.103c-4.272,1.526-8.164,5.218-8.518,19.271c0,0-1.431,32.76-1.457,39.096
							c10.728,4.245,21.885,4.114,28.052,2.767c12.838-2.805,14.386-8.13,14.386-8.13s0.166-23.558-0.219-33.733
							C364.066,252.307,363.951,245.911,363.121,243.387z"/>
					</g>
				</g>
				<g id="XMLID_1182_">
					<g id="XMLID_2387_">
						<path id="XMLID_2388_" style="fill:#F28F8F;" d="M326.136,215.305c0,0-3.096,4.937-2.721,5.407
							c0.376,0.47,2.745,0.848,2.745,0.848L326.136,215.305z"/>
					</g>
					<g id="XMLID_1183_">
						<path id="XMLID_2386_" style="fill:#FFA8A7;" d="M334.736,201.647c-6.457,1.515-8.266,4.409-8.645,14.729
							c-0.396,10.784,0.78,14.144,2.227,15.563c0.977,0.957,6.288,1.014,8.949,0.216c3.33-1,10.842-3.854,14.267-9.351
							c4.028-6.467,4.93-15.13,0.383-18.572C345.519,199.386,337.363,201.03,334.736,201.647z"/>
					</g>
				</g>
				<g id="XMLID_1175_">
					<g id="XMLID_1179_">
						<g id="XMLID_1180_">
							<path id="XMLID_1181_" style="fill:#263238;" d="M326.161,204.331c1.895,3.244,6.008,4.796,6.008,4.796
								c1.238,1.411,0.556,6.912,2.735,7.785c0,0,0.936-4.004,4.302-3.579c3.389,0.428,3.941,4.722,1.872,7.385
								c-2.07,2.663-4.076,1.705-4.076,1.705s0.232,5.687,2.825,8.852c0,0,2.891,0.864,8.141-0.38
								c3.227-0.765,7.723-4.922,9.554-9.258c3.874-9.173,3.975-17.35-1.878-19.669c-0.721-4.171-4.058-5.972-7.834-6.751
								c-8.126-1.675-13.365,3.397-19.621,2.956C324.61,197.923,323.941,200.53,326.161,204.331z"/>
						</g>
					</g>
					<g id="XMLID_1176_">
						<g id="XMLID_1177_">
							<path id="XMLID_1178_" style="fill:#263238;" d="M355.778,203.368l3.831-2.376c-0.656-1.058-2.046-1.383-3.103-0.727
								S355.122,202.31,355.778,203.368z"/>
						</g>
					</g>
				</g>
			</g>
			<path id="XMLID_1173_" style="fill:#FFA8A7;" d="M332.656,241.899c0,0-5.854,0.57-10.008,5.686
				c-3.667,4.517-16.413,22.547-16.413,22.547s-19.954-9.986-20.936-11.17c-0.982-1.184-0.429-3.577-0.16-4.895
				c0.271-1.317,0.717-4.244,1.01-5.066c0.513-1.435-1.61-1.048-2.861,0.294c-1.281,1.374-1.806,3.964-2.431,4.415
				c-0.624,0.45-5.371-5.01-7.676-7.645c-2.304-2.635-3.385-4.479-4.929-3.392c-1.113,0.784-0.398,2.348,1.253,4.606
				c1.652,2.257,1.893,2.5,2.134,2.99c0.198,0.404-0.412,0.727-0.653,0.943c-0.447,0.4-1.242,1.055-1.297,1.681
				c-0.03,0.341,0.032,0.694-0.063,1.023c-0.215,0.751-1.145,1.104-1.407,1.839c-0.19,0.532,0.02,1.129-0.087,1.684
				c-0.069,0.358-0.266,0.681-0.33,1.04c-0.126,0.704,0.279,1.392,0.739,1.939c1.619,1.926,3.832,2.663,5.953,3.837
				c1.764,0.976,3.585,1.404,5.617,2.306c2.031,0.903,26.017,19.296,29.746,17.237c3.729-2.059,22.446-23.85,22.446-23.85
				C338.661,249.822,332.656,241.899,332.656,241.899z"/>
			<path id="XMLID_1169_" style="fill:#27DEBF;" d="M334.409,240.911c-2.61,0.3-6.945,0.497-11.192,5.307
				c-4.966,5.624-11.505,14.805-11.505,14.805s1.775,8.903,11.442,10.772c0,0,8.952-9.172,11.442-14.222
				C337.086,252.523,337.482,244.319,334.409,240.911z"/>
			<path id="XMLID_933_" style="opacity:0.1;" d="M334.409,240.911c-2.61,0.3-6.945,0.497-11.192,5.307
				c-4.966,5.624-11.505,14.805-11.505,14.805s1.775,8.903,11.442,10.772c0,0,8.952-9.172,11.442-14.222
				C337.086,252.523,337.482,244.319,334.409,240.911z"/>
		</g>
	</g>
</g>
</svg>
